<?xml version="1.0" encoding="UTF-8" standalone="no"?>
<!-- Created with Inkscape (http://www.inkscape.org/) -->

<svg
   xmlns:dc="http://purl.org/dc/elements/1.1/"
   xmlns:cc="http://creativecommons.org/ns#"
   xmlns:rdf="http://www.w3.org/1999/02/22-rdf-syntax-ns#"
   xmlns:svg="http://www.w3.org/2000/svg"
   xmlns="http://www.w3.org/2000/svg"
   xmlns:sodipodi="http://sodipodi.sourceforge.net/DTD/sodipodi-0.dtd"
   xmlns:inkscape="http://www.inkscape.org/namespaces/inkscape"
   version="1.1"
   id="svg2"
   xml:space="preserve"
   width="1925.9333"
   height="290.90668"
   viewBox="0 0 1925.9333 290.90668"
   sodipodi:docname="logo+tag_line_v2.svg"
   inkscape:version="0.92.3 (2405546, 2018-03-11)"><metadata
     id="metadata8"><rdf:RDF><cc:Work
         rdf:about=""><dc:format>image/svg+xml</dc:format><dc:type
           rdf:resource="http://purl.org/dc/dcmitype/StillImage" /><dc:title></dc:title></cc:Work></rdf:RDF></metadata><defs
     id="defs6" /><sodipodi:namedview
     pagecolor="#ffffff"
     bordercolor="#666666"
     borderopacity="1"
     objecttolerance="10"
     gridtolerance="10"
     guidetolerance="10"
     inkscape:pageopacity="0"
     inkscape:pageshadow="2"
     inkscape:window-width="1526"
     inkscape:window-height="873"
     id="namedview4"
     showgrid="false"
     inkscape:zoom="0.18796081"
     inkscape:cx="962.96667"
     inkscape:cy="145.45334"
     inkscape:window-x="0"
     inkscape:window-y="0"
     inkscape:window-maximized="0"
     inkscape:current-layer="g10" /><g
     id="g10"
     inkscape:groupmode="layer"
     inkscape:label="ink_ext_XXXXXX"
     transform="matrix(1.3333333,0,0,-1.3333333,0,290.90667)"><g
       id="g12"
       transform="scale(0.1)"><path
         d="m 13886.5,974.23 c -31.1,0 -54.8,1.5 -66.6,13.352 -10.4,7.387 -14.9,20.728 -14.9,39.998 v 607.43 c 0,16.31 0,34.08 16.3,50.38 16.3,13.32 35.6,14.82 53.4,14.82 h 560 v 155.56 h -665.2 c -40,0 -90.4,-2.97 -124.5,-40.01 -22.2,-25.19 -35.5,-66.66 -35.5,-108.16 V 972.762 c 0,-40 2.9,-87.422 38.5,-121.5 34.1,-34.082 72.6,-32.582 118.5,-32.582 h 674.1 v 155.55 z m -24,296.31 h 557.4 v 155.57 h -557.4 z M 8268.96,987.582 c -10.36,7.387 -14.81,20.728 -14.81,39.998 v 607.43 c 0,16.31 0,34.08 16.3,50.38 16.29,13.32 35.55,14.82 53.33,14.82 h 560.03 v 155.56 H 8218.6 c -40,0 -90.39,-2.97 -124.47,-40.01 -22.2,-25.19 -35.54,-66.66 -35.54,-108.16 V 972.762 c 0,-40 2.96,-87.422 38.51,-121.5 34.07,-34.082 72.61,-32.582 118.54,-32.582 h 674.09 v 155.55 h -554.1 c -31.1,0 -54.82,1.5 -66.67,13.352 z m 42.55,282.958 H 8869 v 155.57 h -557.49 z m -2048.74,597.08 c -93.35,0 -133.33,-29.62 -170.37,-117.05 L 5701.27,818.68 h 205.92 l 104.35,260.1 51.21,141.4 170.4,422.25 c 5.92,16.28 16.28,42.96 29.62,42.96 13.35,0 23.7,-26.68 29.63,-42.96 l 168.9,-422.25 50.34,-139.28 h 0.04 l 106.67,-262.22 h 205.92 l -391.12,931.89 c -37.05,87.43 -81.48,117.05 -170.38,117.05 z m -135.91,-647.44 -53.18,-139.28 h 376.63 l -53.18,139.28 z M 13192,1091.28 c 0,-7.41 0,-25.19 -16.3,-25.19 -13.3,0 -16.3,14.81 -23.7,25.19 l -440,694.86 c -28.1,45.93 -71.1,81.48 -164.4,81.48 -99.3,0 -158.6,-51.86 -158.6,-140.75 V 818.68 h 189.7 v 761.52 c 0,22.23 13.3,29.62 20.7,29.62 4.5,0 7.4,-2.96 23.7,-25.17 l 437.1,-690.42 c 45.9,-72.589 103.7,-87.41 167.4,-87.41 84.4,0 154.1,41.481 154.1,146.68 v 902.27 H 13192 Z m -1265,-42.96 c -63.7,-78.519 -161.5,-85.929 -268.1,-85.929 -106.7,0 -207.5,7.41 -266.7,85.929 -34.1,41.47 -63.7,120.01 -63.7,288.89 0,160.02 23.7,238.53 63.7,290.41 60.7,75.55 158.5,84.44 266.7,84.44 106.6,0 207.4,-8.89 268.1,-84.44 32.6,-40.01 63.7,-111.13 63.7,-290.41 0,-165.92 -29.6,-245.93 -63.7,-288.89 z m -266.7,819.3 c -125.9,0 -299.2,1.49 -413.3,-109.63 -114.1,-105.2 -120,-280.03 -120,-420.78 0,-117.03 1.5,-305.2 120,-420.749 114.1,-111.129 291.9,-109.641 413.3,-109.641 121.5,0 299.3,0 413.4,109.641 106.7,103.699 118.5,284.459 118.5,420.749 0,134.82 -10.3,317.07 -118.5,420.78 -114.1,111.12 -291.9,109.63 -413.4,109.63 z M 10019.6,1700.21 H 10424 V 818.68 h 195.6 v 881.53 h 406 v 155.56 h -1006 z m -312.73,-340.77 -379.28,120.01 c -82.97,28.16 -96.29,71.12 -96.29,117.05 0,19.24 1.47,56.29 26.67,80.01 23.69,22.2 53.32,23.7 81.47,23.7 h 530.41 v 155.56 h -597.07 c -51.86,0 -117.05,-5.93 -170.38,-57.78 -59.27,-54.82 -66.68,-128.9 -66.68,-192.6 0,-57.78 5.95,-140.75 53.34,-195.57 38.51,-50.38 109.63,-74.08 122.98,-77.04 l 408.9,-128.9 c 90.39,-28.15 100.74,-77.05 100.74,-117.05 0,-35.55 -4.43,-112.6 -97.78,-112.6 H 9049.06 V 818.68 h 637.08 c 69.62,0 133.33,7.41 185.18,74.082 42.97,54.808 51.85,127.398 51.85,192.598 0,35.55 -4.43,96.29 -31.09,149.63 -26.68,57.78 -81.5,91.86 -185.21,124.45 z m -2308.99,-5.92 c 0,35.57 25.17,54.81 48.89,77.04 l 447.41,425.21 h -241.49 l -392.6,-388.17 c -28.15,-28.15 -50.38,-75.55 -50.38,-115.56 0,-35.57 13.34,-87.42 65.19,-134.82 L 7701.58,818.68 H 7949 l -490.38,437.05 c -28.16,25.2 -60.74,51.86 -60.74,97.79 z M 6956.37,818.68 h 195.56 V 1855.77 H 6956.37 Z M 5005.59,986.082 c -16.3,13.348 -13.34,32.608 -13.34,44.468 v 825.22 h -195.57 v -924.5 c 0,-45.93 20.74,-72.59 37.05,-85.93 23.7,-19.25 62.21,-26.66 96.29,-26.66 h 693.38 v 155.55 h -568.92 c -31.11,0 -42.96,7.418 -48.89,11.852"
         style="fill:#000000;fill-opacity:1;fill-rule:nonzero;stroke:none"
         id="path14"
         inkscape:connector-curvature="0" /><path
         d="M 14414.5,505.738 14282.4,309.16 h -1.3 c 1.5,19.551 2.2,41.422 2.2,65.578 v 131 h -25.6 V 270.172 h 30 l 132.3,197.707 h 1.4 c -1.8,-23.75 -2.7,-46.399 -2.7,-68.008 V 270.172 h 25.8 v 235.566 z m -411.5,0 h -31.4 L 13865.4,391.66 V 505.738 H 13838 V 270.172 h 27.4 v 119.387 l 109,-119.387 h 33.1 l -108.7,121.168 z m -557.3,-135.988 27.7,73 c 4.4,12.34 7.8,23.68 10.2,33.988 3.7,-13.429 7.4,-24.769 11,-33.988 l 27.3,-73 z m 26.8,136.961 -93.2,-236.539 h 27.8 l 29,74.918 h 94.4 l 29.3,-74.918 h 28.4 l -92.7,236.539 z M 13083.7,393.27 v 1.289 c 17.3,2.582 30.9,8.703 40.7,18.371 9.8,9.672 14.7,22.242 14.7,37.711 0,17.828 -6.8,32.039 -20.5,42.609 -13.7,10.59 -32.6,15.879 -56.8,15.879 -14.5,0 -28.5,-2.07 -42,-6.207 -13.4,-4.133 -25.6,-10.231 -36.5,-18.281 l 13.6,-18.379 c 12.5,7.949 23.6,13.269 33.2,15.957 9.5,2.679 20.2,4.019 32,4.019 14.7,0 26.5,-3.437 35.2,-10.308 8.7,-6.879 13,-16.059 13,-27.551 0,-14.18 -6,-25.219 -18.1,-33.117 -12.1,-7.891 -29.2,-11.832 -51.2,-11.832 h -33.7 v -23.051 h 35.2 c 23.9,0 41.9,-3.707 54,-11.109 12.1,-7.418 18.2,-18.321 18.2,-32.719 0,-15.141 -5.5,-26.742 -16.4,-34.801 -10.9,-8.059 -27,-12.09 -48.3,-12.09 -11,0 -22.5,1.352 -34.5,4.031 -12,2.688 -23.1,6.5 -33.5,11.438 V 279.68 c 17.6,-8.5 40,-12.739 67.4,-12.739 30,0 53.2,6.161 69.6,18.45 16.4,12.308 24.7,29.461 24.7,51.488 0,15.57 -5.1,28.191 -15.3,37.859 -10.1,9.672 -25,15.852 -44.7,18.532 z m -335.6,112.468 h -31.4 L 12610.5,391.66 v 114.078 h -27.4 V 270.172 h 27.4 v 119.387 l 109,-119.387 h 33.2 l -108.8,121.168 z m -483.4,-190.129 c -12.7,-16.437 -31.6,-24.66 -56.8,-24.66 -24.8,0 -43.6,8.27 -56.4,24.821 -12.8,16.539 -19.1,40.71 -19.1,72.5 0,31.691 6.4,55.73 19.3,72.109 12.9,16.391 31.8,24.57 56.9,24.57 24.9,0 43.7,-8.097 56.3,-24.32 12.6,-16.219 18.9,-40.348 18.9,-72.359 0,-32.008 -6.3,-56.231 -19.1,-72.661 z m -56.5,193.832 c -30.8,0 -55.2,-8.961 -73.4,-26.902 -18,-17.937 -28.3,-43.609 -30.8,-77.019 h -57.4 v 100.218 h -27.4 V 270.172 h 27.4 v 110.859 h 57.1 c 1.1,-36.633 10.9,-64.812 29.2,-84.519 18.3,-19.711 43.7,-29.571 76,-29.571 32.6,0 58.1,10.719 76.4,32.149 18.4,21.43 27.5,51.16 27.5,89.18 0,37.718 -9.2,67.339 -27.5,88.871 -18.4,21.539 -44.1,32.3 -77.1,32.3 z m -500.4,-111.332 c -10.8,-7.847 -28.4,-11.769 -52.7,-11.769 h -24.6 v 95.719 h 30.6 c 21.6,0 37.5,-3.821 47.7,-11.438 10.2,-7.633 15.3,-19.23 15.3,-34.812 0,-17.289 -5.4,-29.86 -16.3,-37.7 z m -43.6,107.629 h -61.1 V 270.172 h 27.4 v 92.648 h 27.7 c 30.3,0 53.6,6.418 69.8,19.25 16.3,12.84 24.5,31.18 24.5,55.032 0,45.757 -29.5,68.636 -88.3,68.636 z M 10855.9,309.16 h -1.3 c 1.5,19.551 2.2,41.422 2.2,65.578 v 131 h -25.6 V 270.172 h 30 l 132.3,197.707 h 1.4 c -1.8,-23.75 -2.7,-46.399 -2.7,-68.008 V 270.172 h 25.8 v 235.566 h -30 z m -772.2,0 h -1.3 c 1.5,19.551 2.3,41.422 2.3,65.578 v 131 H 10059 V 270.172 h 30 l 132.3,197.707 h 1.4 c -1.8,-23.75 -2.7,-46.399 -2.7,-68.008 V 270.172 h 25.8 v 235.566 h -30 z m -279.37,196.578 h -31.41 L 9666.73,391.66 v 114.078 h -27.4 V 270.172 h 27.4 v 119.387 l 108.93,-119.387 h 33.18 L 9700.08,391.34 Z M 9241.08,311.422 h -1.29 l -74.61,194.316 h -41.25 V 270.172 h 25.3 V 420.02 c 0,22.769 -0.75,42.429 -2.25,58.98 h 1.29 l 79.92,-208.828 h 22.07 l 80.57,208.5 h 1.28 c -1.5,-20.41 -2.24,-39.313 -2.24,-56.723 V 270.172 h 27.38 v 235.566 h -40.92 z m -453.85,62.027 c -1.19,-2.367 -3.28,-8.051 -6.29,-17.07 h -1.29 c -1.5,5.043 -3.6,10.191 -6.28,15.473 l -69.61,133.886 h -30.29 l 91.68,-175.476 c -7.09,-14.93 -14.21,-25.102 -21.35,-30.524 -7.14,-5.429 -16.62,-8.148 -28.44,-8.148 -10.31,0 -20.46,2.32 -30.45,6.941 v -26.75 c 9.02,-3.222 19.49,-4.84 31.42,-4.84 13.32,0 24.51,2.118 33.6,6.368 9.07,4.242 17.23,10.929 24.49,20.062 7.25,9.129 15.38,23.738 24.41,43.828 l 75.25,168.539 h -29.01 z m -410.51,111.192 c 17.83,0 35.66,-4.2 53.49,-12.582 l 11.61,23.543 c -18.48,9.019 -40.07,13.527 -64.78,13.527 -23.2,0 -43.37,-4.949 -60.5,-14.82 -17.14,-9.899 -30.25,-23.969 -39.32,-42.231 -9.08,-18.258 -13.62,-39.527 -13.62,-63.808 0,-38.782 9.43,-68.692 28.28,-89.739 18.86,-21.062 45.63,-31.59 80.33,-31.59 23.95,0 44.09,3.071 60.42,9.18 v 24.02 c -21.05,-5.911 -39.8,-8.86 -56.23,-8.86 -26.75,0 -47.35,8.399 -61.8,25.219 -14.45,16.801 -21.67,40.621 -21.67,71.461 0,29.961 7.49,53.57 22.48,70.809 14.99,17.25 35.42,25.871 61.31,25.871 z M 7571.66,270.172 h 131.32 v 24.488 h -103.93 v 86.692 h 97.64 v 24.168 h -97.64 v 75.902 h 103.93 v 24.316 h -131.32 z m -388.92,34.719 c -9.13,-7.571 -23.42,-11.36 -42.86,-11.36 h -39.8 v 87.168 h 35.29 c 21.48,0 37.03,-3.301 46.65,-9.91 9.61,-6.598 14.42,-17.258 14.42,-31.98 0,-15.039 -4.57,-26.348 -13.7,-33.918 z m 19.98,83.789 c -14.72,11.011 -36.09,16.519 -64.13,16.519 h -38.51 v 100.539 h -27.39 V 270.172 h 70.25 c 26.75,0 47.07,5.91 60.99,17.719 13.91,11.82 20.86,28.789 20.86,50.918 0,22.242 -7.35,38.863 -22.07,49.871 z m 59.3,-118.508 h 27.39 v 235.566 h -27.39 z M 6763.21,405.52 h -124.07 v 100.218 h -27.4 V 270.172 h 27.4 v 110.859 h 124.07 V 270.172 h 27.39 v 235.566 h -27.39 z m -543.76,-35.77 27.71,73 c 4.41,12.34 7.79,23.68 10.15,33.988 3.76,-13.429 7.42,-24.769 10.96,-33.988 l 27.39,-73 z m 26.75,136.961 -93.14,-236.539 h 27.72 l 29,74.918 h 94.42 l 29.33,-74.918 h 28.36 l -92.65,236.539 z m -314.32,-0.973 h -30.61 L 5809.42,391.66 V 505.738 H 5783 V 391.66 l -91.69,114.078 h -30.61 l 92.65,-114.398 -96.04,-121.168 h 32.07 L 5783,389.559 V 270.172 h 26.42 v 119.387 l 93.78,-119.387 h 31.59 L 5839.07,391.66 Z M 5370.4,315.609 c -13.32,-16.437 -33.04,-24.66 -59.14,-24.66 -25.89,0 -45.63,8.25 -59.21,24.731 -13.6,16.5 -20.39,40.699 -20.39,72.59 0,31.48 6.79,55.46 20.39,71.96 13.58,16.481 33.43,24.719 59.53,24.719 26,0 45.63,-8.179 58.89,-24.57 13.27,-16.379 19.91,-40.418 19.91,-72.109 0,-32.008 -6.66,-56.231 -19.98,-72.661 z m -58.82,193.832 c -34.8,0 -61.66,-10.543 -80.56,-31.66 -18.91,-21.101 -28.36,-50.84 -28.36,-89.179 0,-38.672 9.42,-68.622 28.27,-89.832 18.86,-21.219 45.63,-31.829 80.33,-31.829 33.95,0 60.45,10.809 79.52,32.391 19.06,21.598 28.6,51.25 28.6,88.938 0,37.812 -9.51,67.46 -28.52,88.949 -19.01,21.48 -45.44,32.222 -79.28,32.222 z m -351.05,-3.703 h -31.42 L 4822.92,391.66 v 114.078 h -27.39 V 270.172 h 27.39 v 119.387 l 108.93,-119.387 h 33.19 l -108.76,121.168 104.25,114.398"
         style="fill:#727475;fill-opacity:1;fill-rule:nonzero;stroke:none"
         id="path16"
         inkscape:connector-curvature="0" /><path
         d="m 2904.38,1193.68 -199.56,241.29 c -94.99,-71.24 -401.87,-256.15 -677.36,-256.15 -165.64,0 -336.87,65.35 -518.15,134.53 -165.87,63.29 -336.47,128.22 -517.369,148.39 21.279,22.21 43.549,45.09 67.549,69.1 195.88,195.87 344.36,309.51 402.36,351.45 52.02,-37.37 174.58,-133.26 377.61,-336.29 49.83,-49.83 83.98,-84.54 121.62,-124.82 90.38,1.49 205.39,49.26 293.69,96.48 -57.09,64.88 -121.39,133.59 -215.72,227.93 -311.18,311.18 -456.67,397.36 -472.28,406.19 -74.63,42.17 -175.53,39.71 -245.4,-6.01 -7.9,-5.18 -196.7,-129.85 -471.835,-404.98 C 715.258,1606.51 620.727,1496.97 558.242,1418.77 255.352,1331.1 13.4336,1156.66 0,1146.86 L 195.836,902.82 c 3.559,2.571 359.129,257.6 684.68,257.6 161.624,0 330.954,-64.62 510.214,-133.02 166.1,-63.4 336.89,-128.451 518.92,-149.369 -26.3,-27.449 -54.52,-56.383 -85.36,-87.222 -206.57,-206.559 -328.05,-300.207 -377.01,-334.797 -56.95,40.976 -195.25,147.117 -385.36,337.226 -44.34,44.332 -83.959,85.75 -119.4,124.071 -0.223,0 -6.844,8.281 -7.063,8.281 -87.523,0 -202.937,-46.551 -294.277,-93.942 56.816,-65.527 134.238,-151.089 221.148,-238 278.962,-278.957 459.342,-394.789 466.892,-399.589 71.68,-45.559 172.25,-49.278 244.55,-9.047 14.92,8.289 154.52,89.886 460.48,395.847 147.11,147.11 245.1,258.821 308.57,337.211 307.21,87.12 548.3,265.67 561.56,275.61"
         style="fill:#231f20;fill-opacity:1;fill-rule:nonzero;stroke:none"
         id="path18"
         inkscape:connector-curvature="0" /><path
         d="m 3741.68,0 h -20 v 2065.31 h 20 V 0"
         style="fill:#727475;fill-opacity:1;fill-rule:nonzero;stroke:none"
         id="path20"
         inkscape:connector-curvature="0" /></g></g></svg>